<svg width="38" height="38" viewBox="0 0 38 38" fill="none" xmlns="http://www.w3.org/2000/svg">
<path d="M33.25 11.875H26.125V7.125C26.125 6.49511 25.8748 5.89102 25.4294 5.44562C24.984 5.00022 24.3799 4.75 23.75 4.75H14.25C13.6201 4.75 13.016 5.00022 12.5706 5.44562C12.1252 5.89102 11.875 6.49511 11.875 7.125V11.875H4.75C4.12011 11.875 3.51602 12.1252 3.07062 12.5706C2.62522 13.016 2.375 13.6201 2.375 14.25V30.875C2.375 31.5049 2.62522 32.109 3.07062 32.5544C3.51602 32.9998 4.12011 33.25 4.75 33.25H33.25C33.8799 33.25 34.484 32.9998 34.9294 32.5544C35.3748 32.109 35.625 31.5049 35.625 30.875V14.25C35.625 13.6201 35.3748 13.016 34.9294 12.5706C34.484 12.1252 33.8799 11.875 33.25 11.875ZM14.25 7.125H23.75V11.875H14.25V7.125ZM4.75 30.875V14.25H33.25V30.875H4.75Z" fill="#5A19F2"/>
</svg>
