<svg width="37" height="37" viewBox="0 0 37 37" fill="none" xmlns="http://www.w3.org/2000/svg">
<rect width="37" height="37" rx="9" fill="#0357CF"/>
<path d="M30.0625 4.625H6.9375C6.32419 4.625 5.73599 4.86864 5.30232 5.30232C4.86864 5.73599 4.625 6.32419 4.625 6.9375V30.0625C4.625 30.6758 4.86864 31.264 5.30232 31.6977C5.73599 32.1314 6.32419 32.375 6.9375 32.375H30.0625C30.6758 32.375 31.264 32.1314 31.6977 31.6977C32.1314 31.264 32.375 30.6758 32.375 30.0625V6.9375C32.375 6.32419 32.1314 5.73599 31.6977 5.30232C31.264 4.86864 30.6758 4.625 30.0625 4.625Z" stroke="white" stroke-width="3.08333" stroke-linejoin="round"/>
<path d="M10.3601 22.9978L13.0332 20.3247C13.9655 19.3924 15.4768 19.3914 16.4103 20.3226V20.3226C17.3451 21.255 18.8588 21.2526 19.7906 20.3172L26.2084 13.875" stroke="white" stroke-width="3.08333" stroke-linecap="round" stroke-linejoin="round"/>
<path d="M20.0417 13.875V13.875C23.4475 13.875 26.2084 16.6359 26.2084 20.0417V20.0417" stroke="white" stroke-width="3.08333" stroke-linecap="round" stroke-linejoin="round"/>
</svg>
