<svg width="216" height="70" viewBox="0 0 216 70" fill="none" xmlns="http://www.w3.org/2000/svg">
<rect width="216" height="69.2113" rx="34.6056" fill="#52C95A"/>
<path d="M63.639 16.6125C61.3961 14.3477 58.7249 12.552 55.7811 11.3299C52.8373 10.1079 49.6796 9.48396 46.4923 9.49452C33.1369 9.49452 22.2521 20.3794 22.2521 33.7347C22.2521 38.0153 23.3773 42.1735 25.4808 45.8426L22.0564 58.4152L34.8981 55.0396C38.4448 56.972 42.4318 57.9993 46.4923 57.9993C59.8476 57.9993 70.7325 47.1145 70.7325 33.7592C70.7325 27.2772 68.213 21.1866 63.639 16.6125ZM46.4923 53.89C42.8721 53.89 39.3254 52.9116 36.2189 51.0771L35.4851 50.6368L27.8535 52.6425L29.8837 45.2066L29.3945 44.4483C27.3827 41.2368 26.3148 37.5243 26.3125 33.7347C26.3125 22.6297 35.3628 13.5794 46.4678 13.5794C51.8491 13.5794 56.9124 15.683 60.7037 19.4988C62.5813 21.3672 64.0693 23.5899 65.0812 26.0378C66.0931 28.4858 66.6089 31.1103 66.5987 33.7592C66.6476 44.8642 57.5973 53.89 46.4923 53.89ZM57.5483 38.8225C56.9368 38.5289 53.9527 37.0613 53.4145 36.8412C52.8519 36.6455 52.4606 36.5476 52.0448 37.1347C51.6289 37.7462 50.4793 39.116 50.1369 39.5073C49.7944 39.9232 49.4275 39.9721 48.816 39.6541C48.2045 39.3606 46.2477 38.7001 43.9484 36.6455C42.1383 35.0311 40.9398 33.0498 40.5729 32.4383C40.2304 31.8268 40.5239 31.5088 40.8419 31.1908C41.111 30.9218 41.4534 30.4815 41.747 30.139C42.0405 29.7966 42.1628 29.5275 42.3585 29.1362C42.5542 28.7203 42.4563 28.3779 42.3095 28.0844C42.1628 27.7908 40.9398 24.8067 40.4506 23.5837C39.9614 22.4096 39.4477 22.5563 39.0808 22.5319H37.9067C37.4909 22.5319 36.8549 22.6786 36.2923 23.2901C35.7542 23.9016 34.1887 25.3693 34.1887 28.3534C34.1887 31.3376 36.3657 34.2239 36.6592 34.6153C36.9527 35.0311 40.9398 41.1462 47.0059 43.7634C48.4491 44.3994 49.5743 44.7663 50.4548 45.0354C51.898 45.5001 53.2189 45.4267 54.2706 45.28C55.4447 45.1088 57.8663 43.8124 58.3555 42.3937C58.8692 40.975 58.8692 39.7764 58.698 39.5073C58.5267 39.2383 58.1598 39.116 57.5483 38.8225Z" fill="white"/>
<path d="M97.8006 32.7953H94.3452C94.2821 32.3483 94.1532 31.9512 93.9586 31.6041C93.764 31.2517 93.5142 30.9519 93.2092 30.7048C92.9041 30.4576 92.5518 30.2682 92.1521 30.1367C91.7576 30.0053 91.329 29.9395 90.8661 29.9395C90.0299 29.9395 89.3015 30.1473 88.6809 30.5627C88.0603 30.973 87.579 31.5725 87.2372 32.3615C86.8953 33.1451 86.7244 34.097 86.7244 35.2173C86.7244 36.3691 86.8953 37.3368 87.2372 38.1204C87.5843 38.9041 88.0682 39.4958 88.6888 39.8955C89.3094 40.2952 90.0273 40.495 90.8425 40.495C91.3 40.495 91.7234 40.4346 92.1126 40.3136C92.5071 40.1926 92.8568 40.0164 93.1619 39.785C93.4669 39.5484 93.7193 39.2617 93.9192 38.9251C94.1243 38.5885 94.2663 38.2046 94.3452 37.7733L97.8006 37.7891C97.7112 38.5307 97.4877 39.2459 97.13 39.9349C96.7777 40.6186 96.3017 41.2314 95.7021 41.7731C95.1078 42.3095 94.3978 42.7355 93.5721 43.0511C92.7516 43.3614 91.8233 43.5165 90.7873 43.5165C89.3462 43.5165 88.0576 43.1905 86.9216 42.5383C85.7909 41.8861 84.8968 40.9421 84.2394 39.7061C83.5872 38.4702 83.2611 36.9739 83.2611 35.2173C83.2611 33.4554 83.5925 31.9565 84.2551 30.7205C84.9178 29.4846 85.8172 28.5432 86.9532 27.8963C88.0892 27.2441 89.3672 26.918 90.7873 26.918C91.7234 26.918 92.5912 27.0495 93.3906 27.3125C94.1953 27.5754 94.908 27.9594 95.5286 28.4643C96.1492 28.9639 96.6541 29.5766 97.0433 30.3024C97.4377 31.0282 97.6902 31.8592 97.8006 32.7953ZM105.662 43.5323C104.437 43.5323 103.377 43.272 102.483 42.7513C101.594 42.2254 100.908 41.4943 100.424 40.5582C99.9398 39.6167 99.6979 38.5254 99.6979 37.2842C99.6979 36.0325 99.9398 34.9385 100.424 34.0024C100.908 33.0609 101.594 32.3299 102.483 31.8092C103.377 31.2833 104.437 31.0203 105.662 31.0203C106.887 31.0203 107.945 31.2833 108.833 31.8092C109.728 32.3299 110.416 33.0609 110.9 34.0024C111.384 34.9385 111.626 36.0325 111.626 37.2842C111.626 38.5254 111.384 39.6167 110.9 40.5582C110.416 41.4943 109.728 42.2254 108.833 42.7513C107.945 43.272 106.887 43.5323 105.662 43.5323ZM105.678 40.9289C106.235 40.9289 106.701 40.7712 107.074 40.4556C107.448 40.1348 107.729 39.6983 107.918 39.146C108.113 38.5938 108.21 37.9653 108.21 37.2605C108.21 36.5558 108.113 35.9273 107.918 35.3751C107.729 34.8228 107.448 34.3863 107.074 34.0655C106.701 33.7447 106.235 33.5843 105.678 33.5843C105.115 33.5843 104.642 33.7447 104.258 34.0655C103.879 34.3863 103.592 34.8228 103.398 35.3751C103.209 35.9273 103.114 36.5558 103.114 37.2605C103.114 37.9653 103.209 38.5938 103.398 39.146C103.592 39.6983 103.879 40.1348 104.258 40.4556C104.642 40.7712 105.115 40.9289 105.678 40.9289ZM117.172 36.2902V43.2957H113.811V31.1781H117.014V33.316H117.156C117.425 32.6113 117.874 32.0538 118.505 31.6435C119.137 31.2281 119.902 31.0203 120.801 31.0203C121.643 31.0203 122.376 31.2044 123.002 31.5725C123.628 31.9407 124.114 32.4666 124.462 33.1504C124.809 33.8288 124.982 34.6388 124.982 35.5802V43.2957H121.622V36.1797C121.627 35.4382 121.437 34.8596 121.054 34.4442C120.67 34.0234 120.141 33.813 119.468 33.813C119.016 33.813 118.616 33.9103 118.269 34.1049C117.927 34.2995 117.659 34.5835 117.464 34.9569C117.275 35.3251 117.177 35.7695 117.172 36.2902ZM134.076 31.1781V33.7026H126.779V31.1781H134.076ZM128.436 28.2749H131.796V39.572C131.796 39.8823 131.844 40.1243 131.938 40.2978C132.033 40.4661 132.165 40.5845 132.333 40.6528C132.506 40.7212 132.706 40.7554 132.932 40.7554C133.09 40.7554 133.248 40.7422 133.406 40.7159C133.564 40.6844 133.685 40.6607 133.769 40.6449L134.297 43.1458C134.129 43.1984 133.892 43.2588 133.587 43.3272C133.282 43.4008 132.911 43.4455 132.475 43.4613C131.665 43.4929 130.955 43.3851 130.345 43.1379C129.74 42.8907 129.269 42.5068 128.933 41.9861C128.596 41.4654 128.43 40.808 128.436 40.0138V28.2749ZM139.721 43.5244C138.948 43.5244 138.259 43.3903 137.654 43.1221C137.049 42.8486 136.571 42.4463 136.218 41.9151C135.871 41.3786 135.698 40.7107 135.698 39.9113C135.698 39.2381 135.821 38.6727 136.068 38.2151C136.316 37.7576 136.652 37.3894 137.078 37.1107C137.504 36.8319 137.988 36.6215 138.53 36.4795C139.077 36.3375 139.65 36.2376 140.25 36.1797C140.954 36.1061 141.522 36.0377 141.954 35.9746C142.385 35.9063 142.698 35.8063 142.892 35.6748C143.087 35.5434 143.184 35.3488 143.184 35.0911V35.0437C143.184 34.5441 143.026 34.1575 142.711 33.884C142.401 33.6105 141.959 33.4738 141.386 33.4738C140.781 33.4738 140.299 33.6079 139.942 33.8761C139.584 34.1391 139.348 34.4705 139.232 34.8702L136.124 34.6177C136.281 33.8814 136.592 33.245 137.054 32.7086C137.517 32.1669 138.114 31.7514 138.845 31.4621C139.582 31.1676 140.434 31.0203 141.401 31.0203C142.075 31.0203 142.719 31.0992 143.334 31.257C143.955 31.4148 144.504 31.6593 144.983 31.9907C145.467 32.322 145.848 32.748 146.127 33.2687C146.406 33.7841 146.545 34.4021 146.545 35.1226V43.2957H143.358V41.6153H143.263C143.069 41.994 142.808 42.3279 142.482 42.6172C142.156 42.9012 141.764 43.1247 141.307 43.2878C140.849 43.4455 140.321 43.5244 139.721 43.5244ZM140.683 41.2051C141.178 41.2051 141.614 41.1078 141.993 40.9132C142.372 40.7133 142.669 40.4451 142.884 40.1085C143.1 39.7719 143.208 39.3906 143.208 38.9646V37.6787C143.103 37.747 142.958 37.8101 142.774 37.868C142.595 37.9206 142.393 37.9706 142.167 38.0179C141.94 38.06 141.714 38.0994 141.488 38.1362C141.262 38.1678 141.057 38.1967 140.873 38.223C140.478 38.2809 140.134 38.3729 139.839 38.4991C139.545 38.6253 139.316 38.7963 139.153 39.0119C138.99 39.2223 138.908 39.4852 138.908 39.8008C138.908 40.2584 139.074 40.6081 139.405 40.8501C139.742 41.0867 140.168 41.2051 140.683 41.2051ZM154.627 43.5323C153.386 43.5323 152.318 43.2694 151.424 42.7434C150.536 42.2122 149.852 41.4759 149.373 40.5345C148.9 39.5931 148.663 38.5096 148.663 37.2842C148.663 36.043 148.902 34.9543 149.381 34.0181C149.865 33.0767 150.551 32.343 151.44 31.8171C152.329 31.2859 153.386 31.0203 154.612 31.0203C155.669 31.0203 156.594 31.2123 157.388 31.5962C158.183 31.9801 158.811 32.5192 159.274 33.2135C159.737 33.9077 159.992 34.7229 160.039 35.6591H156.868C156.778 35.0542 156.542 34.5678 156.158 34.1996C155.779 33.8262 155.282 33.6395 154.667 33.6395C154.146 33.6395 153.691 33.7815 153.302 34.0655C152.918 34.3442 152.618 34.7518 152.403 35.2883C152.187 35.8247 152.079 36.4743 152.079 37.2369C152.079 38.01 152.184 38.6674 152.395 39.2091C152.61 39.7508 152.913 40.1637 153.302 40.4477C153.691 40.7317 154.146 40.8737 154.667 40.8737C155.051 40.8737 155.395 40.7948 155.7 40.637C156.011 40.4793 156.266 40.2505 156.465 39.9507C156.671 39.6457 156.805 39.2801 156.868 38.8541H160.039C159.987 39.7798 159.734 40.595 159.282 41.2997C158.835 41.9992 158.217 42.5462 157.428 42.9406C156.639 43.3351 155.705 43.5323 154.627 43.5323ZM168.636 31.1781V33.7026H161.339V31.1781H168.636ZM162.996 28.2749H166.356V39.572C166.356 39.8823 166.404 40.1243 166.498 40.2978C166.593 40.4661 166.724 40.5845 166.893 40.6528C167.066 40.7212 167.266 40.7554 167.492 40.7554C167.65 40.7554 167.808 40.7422 167.966 40.7159C168.123 40.6844 168.244 40.6607 168.329 40.6449L168.857 43.1458C168.689 43.1984 168.452 43.2588 168.147 43.3272C167.842 43.4008 167.471 43.4455 167.035 43.4613C166.225 43.4929 165.515 43.3851 164.905 43.1379C164.3 42.8907 163.829 42.5068 163.493 41.9861C163.156 41.4654 162.99 40.808 162.996 40.0138V28.2749ZM183.738 38.1362V31.1781H187.099V43.2957H183.872V41.0946H183.746C183.472 41.8046 183.017 42.3753 182.381 42.8065C181.75 43.2378 180.979 43.4534 180.069 43.4534C179.26 43.4534 178.547 43.2694 177.932 42.9012C177.316 42.533 176.835 42.0097 176.488 41.3313C176.146 40.6528 175.972 39.8403 175.967 38.8936V31.1781H179.328V38.294C179.333 39.0093 179.525 39.5747 179.904 39.9901C180.282 40.4056 180.79 40.6134 181.426 40.6134C181.831 40.6134 182.21 40.5213 182.562 40.3373C182.915 40.1479 183.199 39.8692 183.414 39.501C183.635 39.1329 183.743 38.6779 183.738 38.1362ZM199.869 34.6335L196.792 34.8228C196.74 34.5599 196.627 34.3232 196.453 34.1128C196.279 33.8972 196.051 33.7263 195.767 33.6C195.488 33.4685 195.154 33.4028 194.765 33.4028C194.244 33.4028 193.805 33.5132 193.447 33.7341C193.09 33.9498 192.911 34.239 192.911 34.6019C192.911 34.8912 193.027 35.1358 193.258 35.3356C193.489 35.5355 193.886 35.6959 194.449 35.8168L196.642 36.2586C197.82 36.5006 198.699 36.8898 199.277 37.4262C199.856 37.9627 200.145 38.6674 200.145 39.5405C200.145 40.3346 199.911 41.0315 199.443 41.6311C198.98 42.2306 198.344 42.6987 197.534 43.0353C196.729 43.3667 195.801 43.5323 194.749 43.5323C193.145 43.5323 191.867 43.1984 190.915 42.5304C189.968 41.8572 189.413 40.9421 189.25 39.785L192.556 39.6115C192.656 40.1006 192.898 40.474 193.282 40.7317C193.666 40.9842 194.157 41.1104 194.757 41.1104C195.346 41.1104 195.819 40.9973 196.177 40.7712C196.54 40.5398 196.724 40.2426 196.729 39.8797C196.724 39.5747 196.595 39.3248 196.343 39.1302C196.09 38.9304 195.701 38.7779 195.175 38.6727L193.076 38.2546C191.893 38.0179 191.012 37.6077 190.434 37.0239C189.86 36.4401 189.574 35.6959 189.574 34.7913C189.574 34.0129 189.784 33.3423 190.205 32.7796C190.631 32.2168 191.228 31.7829 191.996 31.4779C192.769 31.1728 193.673 31.0203 194.71 31.0203C196.24 31.0203 197.444 31.3438 198.323 31.9907C199.206 32.6376 199.722 33.5185 199.869 34.6335Z" fill="white"/>
</svg>
