<svg width="31" height="40" viewBox="0 0 31 40" fill="none" xmlns="http://www.w3.org/2000/svg">
<path fill-rule="evenodd" clip-rule="evenodd" d="M7.16667 0C7.60551 5.78897e-05 8.02906 0.161172 8.357 0.452782C8.68494 0.744392 8.89445 1.14622 8.94579 1.58204L8.95833 1.79167V5.375C10.3293 5.37492 11.6485 5.89875 12.6461 6.8393C13.6436 7.77985 14.2439 9.06603 14.3244 10.4347L14.3333 10.75V21.5C14.3334 22.871 13.8096 24.1902 12.869 25.1877C11.9285 26.1852 10.6423 26.7856 9.27367 26.866L8.95833 26.875V34.0417C8.95783 34.4983 8.78297 34.9376 8.46948 35.2696C8.15599 35.6017 7.72754 35.8015 7.27167 35.8283C6.81579 35.855 6.3669 35.7067 6.01672 35.4136C5.66653 35.1205 5.44148 34.7048 5.38754 34.2513L5.375 34.0417V26.875C4.004 26.8751 2.68479 26.3513 1.68728 25.4107C0.689779 24.4701 0.0893907 23.184 0.00895855 21.8153L8.34997e-09 21.5V10.75C-7.63639e-05 9.379 0.523749 8.05979 1.4643 7.06228C2.40485 6.06478 3.69103 5.46439 5.05967 5.38396L5.375 5.375V1.79167C5.375 1.31649 5.56377 0.86077 5.89977 0.524767C6.23577 0.188764 6.69149 0 7.16667 0ZM23.2917 0C23.7305 5.78897e-05 24.1541 0.161172 24.482 0.452782C24.8099 0.744392 25.0194 1.14622 25.0708 1.58204L25.0833 1.79167V8.95833C26.4543 8.95826 27.7735 9.48208 28.771 10.4226C29.7686 11.3632 30.3689 12.6494 30.4494 14.018L30.4583 14.3333V25.0833C30.4584 26.4543 29.9346 27.7735 28.994 28.771C28.0535 29.7686 26.7673 30.3689 25.3987 30.4494L25.0833 30.4583V34.0417C25.0828 34.4983 24.908 34.9376 24.5945 35.2696C24.281 35.6017 23.8525 35.8015 23.3967 35.8283C22.9408 35.855 22.4919 35.7067 22.1417 35.4136C21.7915 35.1205 21.5665 34.7048 21.5125 34.2513L21.5 34.0417V30.4583C20.129 30.4584 18.8098 29.9346 17.8123 28.994C16.8148 28.0535 16.2144 26.7673 16.134 25.3987L16.125 25.0833V14.3333C16.1249 12.9623 16.6488 11.6431 17.5893 10.6456C18.5299 9.64811 19.816 9.04772 21.1847 8.96729L21.5 8.95833V1.79167C21.5 1.31649 21.6888 0.86077 22.0248 0.524767C22.3608 0.188764 22.8165 0 23.2917 0ZM25.0833 12.5417H21.5C21.0612 12.5417 20.6376 12.7028 20.3097 12.9944C19.9817 13.2861 19.7722 13.6879 19.7209 14.1237L19.7083 14.3333V25.0833C19.7084 25.5222 19.8695 25.9457 20.1611 26.2737C20.4527 26.6016 20.8546 26.8111 21.2904 26.8625L21.5 26.875H25.0833C25.5222 26.8749 25.9457 26.7138 26.2737 26.4222C26.6016 26.1306 26.8111 25.7288 26.8625 25.293L26.875 25.0833V14.3333C26.8749 13.8945 26.7138 13.4709 26.4222 13.143C26.1306 12.8151 25.7288 12.6056 25.293 12.5542L25.0833 12.5417ZM8.95833 8.95833H5.375C4.93616 8.95839 4.5126 9.1195 4.18467 9.41111C3.85673 9.70273 3.64722 10.1046 3.59588 10.5404L3.58333 10.75V21.5C3.58339 21.9388 3.7445 22.3624 4.03611 22.6903C4.32772 23.0183 4.72955 23.2278 5.16538 23.2791L5.375 23.2917H8.95833C9.39717 23.2916 9.82073 23.1305 10.1487 22.8389C10.4766 22.5473 10.6861 22.1455 10.7375 21.7096L10.75 21.5V10.75C10.7499 10.3112 10.5888 9.8876 10.2972 9.55967C10.0056 9.23173 9.60378 9.02222 9.16796 8.97088L8.95833 8.95833Z" fill="#ECE629"/>
</svg>
