<svg width="36" height="36" viewBox="0 0 36 36" fill="none" xmlns="http://www.w3.org/2000/svg">
<path d="M2.4555 2.45544C1.098 2.45544 0 3.55344 0 4.90944V31.0904C0 32.4464 1.098 33.5444 2.4555 33.5444H33.5445C34.902 33.5444 36 32.4464 36 31.0904V4.90944C36 3.55344 34.902 2.45544 33.5445 2.45544H2.4555ZM3.273 5.72694H32.727V30.2729H28.638V28.6379H21.273V30.2729H3.273V5.72694ZM18 12.2729C17.349 12.2729 16.7246 12.5316 16.2642 12.9919C15.8039 13.4523 15.5452 14.0767 15.5452 14.7277C15.5452 15.3787 15.8039 16.0031 16.2642 16.4635C16.7246 16.9238 17.349 17.1824 18 17.1824C18.651 17.1824 19.2754 16.9238 19.7358 16.4635C20.1961 16.0031 20.4548 15.3787 20.4548 14.7277C20.4548 14.0767 20.1961 13.4523 19.7358 12.9919C19.2754 12.5316 18.651 12.2729 18 12.2729ZM11.4555 15.1379C10.4385 15.1379 9.612 15.9629 9.612 16.9769C9.62568 17.4562 9.82567 17.9112 10.1695 18.2453C10.5133 18.5795 10.9738 18.7664 11.4532 18.7664C11.9327 18.7664 12.3932 18.5795 12.737 18.2453C13.0808 17.9112 13.2808 17.4562 13.2945 16.9769C13.2945 15.9614 12.471 15.1379 11.4555 15.1379ZM24.5445 15.1379C24.2985 15.1309 24.0536 15.1733 23.8242 15.2626C23.5949 15.3519 23.3857 15.4863 23.2092 15.6578C23.0327 15.8294 22.8924 16.0345 22.7966 16.2612C22.7008 16.488 22.6515 16.7316 22.6515 16.9777C22.6515 17.2238 22.7008 17.4674 22.7966 17.6941C22.8924 17.9208 23.0327 18.126 23.2092 18.2976C23.3857 18.4691 23.5949 18.6035 23.8242 18.6928C24.0536 18.7821 24.2985 18.8245 24.5445 18.8174C25.0233 18.8038 25.478 18.6039 25.8118 18.2604C26.1457 17.9169 26.3325 17.4567 26.3325 16.9777C26.3325 16.4987 26.1457 16.0385 25.8118 15.695C25.478 15.3514 25.0233 15.1516 24.5445 15.1379ZM18 18.8174C16.2315 18.8174 14.3805 19.4189 13.278 20.3264C12.6881 20.1414 12.0737 20.0463 11.4555 20.0444C9.4845 20.0444 7.362 21.0869 7.362 22.3829V23.7269H28.638V22.3829C28.638 21.0869 26.5155 20.0444 24.5445 20.0444C23.9295 20.0444 23.2995 20.1464 22.722 20.3264C21.6195 19.4189 19.7685 18.8174 18 18.8174Z" fill="#DA5934"/>
</svg>
